<?xml version="1.0" encoding="UTF-8"?>
<svg id="Layer_3" data-name="Layer 3" xmlns="http://www.w3.org/2000/svg" viewBox="0 0 221.84 30.75">
  <defs>
    <style>
      .cls-1 {
        fill: #fff;
      }
    </style>
  </defs>
  <g>
    <circle class="cls-1" cx="15.35" cy="3.6" r="3.6"/>
    <circle class="cls-1" cx="15.35" cy="15.41" r="3.6"/>
    <circle class="cls-1" cx="15.35" cy="27.15" r="3.6"/>
    <circle class="cls-1" cx="9.5" cy="21.26" r="3.6"/>
    <circle class="cls-1" cx="3.6" cy="15.41" r="3.6"/>
    <circle class="cls-1" cx="9.5" cy="9.5" r="3.6"/>
  </g>
  <g>
    <polygon class="cls-1" points="102.01 20.36 102.01 5.4 105.67 5.4 105.67 25.41 101.57 25.41 89.08 10.97 89.08 25.41 85.24 25.41 85.24 5.4 88.99 5.4 102.01 20.36"/>
    <polygon class="cls-1" points="196.67 20.19 196.67 5.4 200.34 5.4 200.34 25.41 196.23 25.41 183.75 11.14 183.75 25.41 179.9 25.41 179.9 5.4 183.66 5.4 196.06 19.84 196.67 20.19"/>
    <polygon class="cls-1" points="75.46 20.19 75.46 5.4 79.13 5.4 79.13 25.41 75.02 25.41 62.53 11.14 62.53 25.41 58.69 25.41 58.69 5.4 62.45 5.4 74.84 19.84 75.46 20.19"/>
    <polygon class="cls-1" points="127.33 5.4 127.33 8.71 115.63 8.71 115.63 13.93 126.11 13.93 126.11 17.06 115.63 17.06 115.63 22.27 127.68 22.27 127.68 25.41 111.79 25.41 111.79 5.4 127.33 5.4"/>
    <path class="cls-1" d="M176.76,25.41h-4.02l-2.21-4.49-10.46-.04c-.3-.02-.41.07-.58.29-.7.9-1.49,3.14-1.94,4.24h-4.19l9.62-19.72c.12-.27.33-.26.58-.29.53-.06,3.45-.06,3.68.18l9.51,19.83ZM169.08,17.75l-3.93-8-3.93,8h7.86Z"/>
    <path class="cls-1" d="M151.78,22.54c-6.19,6.05-19.82,3.49-20.61-6.09-.85-10.36,11.93-14.66,19.37-9.02l-1.74,2.67c-5.56-4.22-15.47-.79-13.54,7.14,1.32,5.42,8.45,6.56,12.67,3.91v-5.48h3.58l.26.26v6.61Z"/>
    <path class="cls-1" d="M212.88,4.93c2.73-.08,6.07.77,8.22,2.47l-1.99,2.48c-1.89-1.85-10.53-3.15-9.66,1.13.44,2.14,5.3,2.61,7.12,3.17,3.18.97,5.58,2.5,5.22,6.24-.69,7.18-13.27,6.19-17.09,2.09l2.2-2.48c2.66,1.71,5.96,3.33,9.19,2.19,1.42-.5,2.32-1.91,1.5-3.33-1.51-2.61-10.32-1.44-11.8-6.16-1.58-5.01,2.6-7.68,7.08-7.82Z"/>
    <polygon class="cls-1" points="44.54 5.4 44.54 8.53 33.54 8.53 33.54 14.1 43.32 14.1 43.32 17.23 33.54 17.23 33.54 25.41 29.7 25.41 29.7 5.4 44.54 5.4"/>
    <polygon class="cls-1" points="52.75 25.41 48.91 25.41 48.91 5.4 52.49 5.4 52.75 5.67 52.75 25.41"/>
  </g>
</svg>