<?xml version="1.0" encoding="UTF-8"?>
<svg xmlns="http://www.w3.org/2000/svg" xmlns:xlink="http://www.w3.org/1999/xlink" version="1.1" viewBox="0 0 337.7 105.1">
  <!-- Generator: Adobe Illustrator 29.6.1, SVG Export Plug-In . SVG Version: 2.1.1 Build 9)  -->
  <defs>
    <style>
      .st0, .st1, .st2 {
        fill: none;
      }

      .st3 {
        filter: url(#drop-shadow-1);
        opacity: .4;
      }

      .st3, .st4 {
        fill: #fff;
      }

      .st5 {
        isolation: isolate;
      }

      .st1 {
        filter: url(#drop-shadow-3);
        stroke: url(#linear-gradient1);
      }

      .st1, .st2 {
        mix-blend-mode: lighten;
        opacity: .8;
        stroke-miterlimit: 10;
        stroke-width: 2.2px;
      }

      .st2 {
        filter: url(#drop-shadow-2);
        stroke: url(#linear-gradient);
      }

      .st6 {
        display: none;
      }

      .st7 {
        clip-path: url(#clippath);
      }
    </style>
    <clipPath id="clippath">
      <rect class="st0" x="23.5" y="23.2" width="279.8" height="58.4" rx="29.2" ry="29.2"/>
    </clipPath>
    <filter id="drop-shadow-1" x="13" y="12.7" width="319" height="97" filterUnits="userSpaceOnUse">
      <feOffset dx="8.6" dy="8.6"/>
      <feGaussianBlur result="blur" stdDeviation="6.1"/>
      <feFlood flood-color="#000" flood-opacity=".4"/>
      <feComposite in2="blur" operator="in"/>
      <feComposite in="SourceGraphic"/>
    </filter>
    <linearGradient id="linear-gradient" x1="22.4" y1="52.4" x2="305.4" y2="52.4" gradientUnits="userSpaceOnUse">
      <stop offset="0" stop-color="#fff"/>
      <stop offset="1" stop-color="#000"/>
    </linearGradient>
    <filter id="drop-shadow-2" x="12" y="11.7" width="321" height="99" filterUnits="userSpaceOnUse">
      <feOffset dx="8.6" dy="8.6"/>
      <feGaussianBlur result="blur1" stdDeviation="6.1"/>
      <feFlood flood-color="#000" flood-opacity=".4"/>
      <feComposite in2="blur1" operator="in"/>
      <feComposite in="SourceGraphic"/>
    </filter>
    <linearGradient id="linear-gradient1" x1="-3402.8" y1="403.1" x2="-3119.7" y2="403.1" gradientTransform="translate(3424.6 -350.7)" xlink:href="#linear-gradient"/>
    <filter id="drop-shadow-3" x="12" y="11.7" width="321" height="99" filterUnits="userSpaceOnUse">
      <feOffset dx="8.6" dy="8.6"/>
      <feGaussianBlur result="blur2" stdDeviation="6.1"/>
      <feFlood flood-color="#000" flood-opacity=".4"/>
      <feComposite in2="blur2" operator="in"/>
      <feComposite in="SourceGraphic"/>
    </filter>
  </defs>
  <g class="st5">
    <g id="Layer_1">
      <g>
        <g class="st7">
          <g id="RpQIvR" class="st6">
            <image width="1144" height="592" transform="translate(-327.6 -338.9)" xlink:href="Pantalla 1 Logo Finnegans-1.png"/>
          </g>
          <path class="st0" d="M39.9-473.9h426.8c39.8,0,72.1,27.8,72.1,62.1V66.4c0,34.3-32.3,62.1-72.1,62.1H39.9C0,128.5-32.2,100.7-32.2,66.4v-478.1c0-34.3,32.3-62.1,72.1-62.1Z"/>
        </g>
        <rect class="st3" x="23.5" y="23.2" width="280.9" height="58.4" rx="29.2" ry="29.2"/>
        <path class="st2" d="M52.7,23.2h222.4c16.1,0,29.2,13.1,29.2,29.2h0c0,16.1-13.1,29.2-29.2,29.2H52.7c-16.1,0-29.2-13.1-29.2-29.2h0c0-16.1,13.1-29.2,29.2-29.2Z"/>
        <path class="st1" d="M52.2,23.2h222.4c16.1,0,29.2,13.1,29.2,29.2h0c0,16.1-13.1,29.2-29.2,29.2H52.2c-16.1,0-29.2-13.1-29.2-29.2h0c0-16.1,13.1-29.2,29.2-29.2Z" transform="translate(326.8 104.8) rotate(180)"/>
      </g>
      <g>
        <g>
          <circle class="st4" cx="61.8" cy="40.6" r="3.6"/>
          <circle class="st4" cx="61.8" cy="52.5" r="3.6"/>
          <circle class="st4" cx="61.8" cy="64.2" r="3.6"/>
          <circle class="st4" cx="55.9" cy="58.3" r="3.6"/>
          <circle class="st4" cx="50" cy="52.5" r="3.6"/>
          <circle class="st4" cx="55.9" cy="46.5" r="3.6"/>
        </g>
        <g>
          <polygon class="st4" points="148.4 57.4 148.4 42.4 152.1 42.4 152.1 62.5 148 62.5 135.5 48 135.5 62.5 131.7 62.5 131.7 42.4 135.4 42.4 148.4 57.4"/>
          <polygon class="st4" points="243.1 57.2 243.1 42.4 246.8 42.4 246.8 62.5 242.7 62.5 230.2 48.2 230.2 62.5 226.3 62.5 226.3 42.4 230.1 42.4 242.5 56.9 243.1 57.2"/>
          <polygon class="st4" points="121.9 57.2 121.9 42.4 125.5 42.4 125.5 62.5 121.4 62.5 109 48.2 109 62.5 105.1 62.5 105.1 42.4 108.9 42.4 121.3 56.9 121.9 57.2"/>
          <polygon class="st4" points="173.8 42.4 173.8 45.8 162 45.8 162 51 172.5 51 172.5 54.1 162 54.1 162 59.3 174.1 59.3 174.1 62.5 158.2 62.5 158.2 42.4 173.8 42.4"/>
          <path class="st4" d="M223.2,62.5h-4l-2.2-4.5h-10.5c-.3,0-.4,0-.6.3-.7.9-1.5,3.1-1.9,4.2h-4.2l9.6-19.7c.1-.3.3-.3.6-.3.5,0,3.4,0,3.7.2l9.5,19.8ZM215.5,54.8l-3.9-8-3.9,8h7.9Z"/>
          <path class="st4" d="M198.2,59.6c-6.2,6.1-19.8,3.5-20.6-6.1-.8-10.4,11.9-14.7,19.4-9l-1.7,2.7c-5.6-4.2-15.5-.8-13.5,7.1s8.5,6.6,12.7,3.9v-5.5h3.6l.3.3v6.6Z"/>
          <path class="st4" d="M259.3,42c2.7,0,6.1.8,8.2,2.5l-2,2.5c-1.9-1.8-10.5-3.1-9.7,1.1s5.3,2.6,7.1,3.2c3.2,1,5.6,2.5,5.2,6.2-.7,7.2-13.3,6.2-17.1,2.1l2.2-2.5c2.7,1.7,6,3.3,9.2,2.2s2.3-1.9,1.5-3.3c-1.5-2.6-10.3-1.4-11.8-6.2s2.6-7.7,7.1-7.8Z"/>
          <polygon class="st4" points="91 42.4 91 45.6 80 45.6 80 51.1 89.7 51.1 89.7 54.3 80 54.3 80 62.5 76.1 62.5 76.1 42.4 91 42.4"/>
          <polygon class="st4" points="99.2 62.5 95.3 62.5 95.3 42.4 98.9 42.4 99.2 42.7 99.2 62.5"/>
        </g>
      </g>
    </g>
  </g>
</svg>